HIERARCHY
ROOT Hips
{
	OFFSET 0.000000 87.230942 0.000000
	CHANNELS 6 Xposition Yposition Zposition Xrotation Yrotation Zrotation
	JOINT Pelvis
	{
		OFFSET 0.000000 0.000000 0.000000
		CHANNELS 3 Xrotation Yrotation Zrotation
		JOINT LeftUpLeg
		{
			OFFSET 12.017000 -9.376404 -2.439400
			CHANNELS 3 Xrotation Yrotation Zrotation
			JOINT LeftLeg
			{
				OFFSET -0.007312 -32.846973 2.110600
				CHANNELS 3 Xrotation Yrotation Zrotation
				JOINT LeftFoot
				{
					OFFSET 0.007312 -32.065170 -0.570400
					CHANNELS 3 Xrotation Yrotation Zrotation
					JOINT LeftToeBase
					{
						OFFSET 0.728300 -11.045900 13.180700
						CHANNELS 3 Xrotation Yrotation Zrotation
						End Site
						{
							OFFSET 0.000000 17.212589 0.000000
						}
					}
				}
				JOINT LeftPantLeg
				{
					OFFSET 0.002788 -16.709013 -3.143600
					CHANNELS 3 Xrotation Yrotation Zrotation
					End Site
					{
						OFFSET -0.605125 24.528742 0.000000
					}
				}
			}
			JOINT Left_Butt
			{
				OFFSET -6.630234 1.326584 -3.183700
				CHANNELS 3 Xrotation Yrotation Zrotation
				End Site
				{
					OFFSET -0.498041 20.188049 0.000000
				}
			}
		}
		JOINT RightUpLeg
		{
			OFFSET -11.717000 -9.376404 -2.439400
			CHANNELS 3 Xrotation Yrotation Zrotation
			JOINT RightLeg
			{
				OFFSET -0.003241 -32.846912 2.110600
				CHANNELS 3 Xrotation Yrotation Zrotation
				JOINT RightFoot
				{
					OFFSET 0.003241 -32.065136 -0.570500
					CHANNELS 3 Xrotation Yrotation Zrotation
					JOINT RightToeBase
					{
						OFFSET -0.728300 -11.045901 13.180700
						CHANNELS 3 Xrotation Yrotation Zrotation
						End Site
						{
							OFFSET 0.000000 17.212593 0.000000
						}
					}
				}
				JOINT RightPantLeg
				{
					OFFSET 0.008142 -16.708982 -3.143700
					CHANNELS 3 Xrotation Yrotation Zrotation
					End Site
					{
						OFFSET 0.605088 24.528715 0.000000
					}
				}
			}
			JOINT Right_Butt
			{
				OFFSET 6.630732 1.326584 -3.183700
				CHANNELS 3 Xrotation Yrotation Zrotation
				End Site
				{
					OFFSET 0.498015 20.188240 0.000000
				}
			}
		}
	}
	JOINT Spine
	{
		OFFSET -0.062400 7.848404 3.918300
		CHANNELS 3 Xrotation Yrotation Zrotation
		JOINT Spine1
		{
			OFFSET -0.072800 11.422302 0.713400
			CHANNELS 3 Xrotation Yrotation Zrotation
			JOINT Spine2
			{
				OFFSET -0.083200 13.054001 -1.931600
				CHANNELS 3 Xrotation Yrotation Zrotation
				JOINT Neck
				{
					OFFSET -0.092200 14.121796 -5.138800
					CHANNELS 3 Xrotation Yrotation Zrotation
					JOINT Head
					{
						OFFSET 0.000200 10.447403 -0.842000
						CHANNELS 3 Xrotation Yrotation Zrotation
						JOINT Visor
						{
							OFFSET 0.457100 25.671204 16.550400
							CHANNELS 3 Xrotation Yrotation Zrotation
							End Site
							{
								OFFSET 0.000000 26.061493 0.000000
							}
						}
						JOINT HairMidA
						{
							OFFSET 0.459400 31.585403 8.437400
							CHANNELS 3 Xrotation Yrotation Zrotation
							End Site
							{
								OFFSET 0.000000 26.061493 0.000000
							}
						}
						JOINT HairMidB
						{
							OFFSET 0.464000 33.309204 -8.389700
							CHANNELS 3 Xrotation Yrotation Zrotation
							End Site
							{
								OFFSET 0.000000 26.061493 0.000000
							}
						}
						JOINT HairMidC
						{
							OFFSET 0.466600 27.991196 -17.375099
							CHANNELS 3 Xrotation Yrotation Zrotation
							End Site
							{
								OFFSET 0.000000 26.061493 0.000000
							}
						}
						JOINT HairMidD
						{
							OFFSET 0.467700 17.888092 -21.169500
							CHANNELS 3 Xrotation Yrotation Zrotation
							End Site
							{
								OFFSET 0.000000 26.061493 0.000000
							}
						}
						JOINT HairMidE
						{
							OFFSET 5.325700 3.514603 -14.369699
							CHANNELS 3 Xrotation Yrotation Zrotation
							End Site
							{
								OFFSET 0.000000 26.061493 0.000000
							}
						}
						JOINT HairMidF
						{
							OFFSET -4.394100 3.514603 -14.372400
							CHANNELS 3 Xrotation Yrotation Zrotation
							End Site
							{
								OFFSET 0.000000 26.061493 0.000000
							}
						}
						JOINT HairLeftA
						{
							OFFSET 15.319900 25.746506 2.623300
							CHANNELS 3 Xrotation Yrotation Zrotation
							End Site
							{
								OFFSET 0.000000 26.061493 0.000000
							}
						}
						JOINT HairLeftB
						{
							OFFSET 12.619500 29.289398 -8.731499
							CHANNELS 3 Xrotation Yrotation Zrotation
							End Site
							{
								OFFSET 0.000000 26.061493 0.000000
							}
						}
						JOINT HairLeftC
						{
							OFFSET 15.714800 15.959900 2.909800
							CHANNELS 3 Xrotation Yrotation Zrotation
							End Site
							{
								OFFSET 0.000000 26.061493 0.000000
							}
						}
						JOINT HairLeftD
						{
							OFFSET 16.101700 18.437408 -7.553200
							CHANNELS 3 Xrotation Yrotation Zrotation
							End Site
							{
								OFFSET 0.000000 26.061493 0.000000
							}
						}
						JOINT HairLeftE
						{
							OFFSET 9.731900 17.915009 -18.316799
							CHANNELS 3 Xrotation Yrotation Zrotation
							End Site
							{
								OFFSET 0.000000 26.061493 0.000000
							}
						}
						JOINT HairLeftF
						{
							OFFSET 11.204300 4.953598 -9.668100
							CHANNELS 3 Xrotation Yrotation Zrotation
							End Site
							{
								OFFSET 0.000000 26.061493 0.000000
							}
						}
						JOINT HairRightA
						{
							OFFSET -14.397900 25.746307 2.615100
							CHANNELS 3 Xrotation Yrotation Zrotation
							End Site
							{
								OFFSET 0.000000 26.061493 0.000000
							}
						}
						JOINT HairRightB
						{
							OFFSET -11.691200 29.289200 -8.738199
							CHANNELS 3 Xrotation Yrotation Zrotation
							End Site
							{
								OFFSET 0.000000 26.061493 0.000000
							}
						}
						JOINT HairRightC
						{
							OFFSET -14.792900 15.959702 2.901400
							CHANNELS 3 Xrotation Yrotation Zrotation
							End Site
							{
								OFFSET 0.000000 26.061493 0.000000
							}
						}
						JOINT HairRightD
						{
							OFFSET -15.174000 18.437195 -7.561900
							CHANNELS 3 Xrotation Yrotation Zrotation
							End Site
							{
								OFFSET 0.000000 26.061493 0.000000
							}
						}
						JOINT HairRightE
						{
							OFFSET -8.798200 17.914902 -18.322001
							CHANNELS 3 Xrotation Yrotation Zrotation
							End Site
							{
								OFFSET 0.000000 26.061493 0.000000
							}
						}
						JOINT HairRightF
						{
							OFFSET -10.275200 4.953506 -9.674099
							CHANNELS 3 Xrotation Yrotation Zrotation
							End Site
							{
								OFFSET 0.000000 26.061493 0.000000
							}
						}
					}
				}
				JOINT LeftShoulder
				{
					OFFSET 5.133500 7.341202 -1.867600
					CHANNELS 3 Xrotation Yrotation Zrotation
					JOINT LeftArm
					{
						OFFSET 8.072663 0.936867 -2.176600
						CHANNELS 3 Xrotation Yrotation Zrotation
						JOINT LeftForeArm
						{
							OFFSET 31.271999 0.000000 0.000000
							CHANNELS 3 Xrotation Yrotation Zrotation
							JOINT LeftHand
							{
								OFFSET 31.771030 0.000000 0.000000
								CHANNELS 3 Xrotation Yrotation Zrotation
								JOINT LeftHandThumb1
								{
									OFFSET 2.886520 -2.557846 4.416640
									CHANNELS 3 Xrotation Yrotation Zrotation
									JOINT LeftHandThumb2
									{
										OFFSET 2.371025 -1.368912 1.368911
										CHANNELS 3 Xrotation Yrotation Zrotation
										JOINT LeftHandThumb3
										{
											OFFSET 2.243378 -1.295212 1.295213
											CHANNELS 3 Xrotation Yrotation Zrotation
											End Site
											{
												OFFSET -0.332611 2.876945 0.020015
											}
										}
									}
								}
								JOINT LeftHandIndex1
								{
									OFFSET 8.568985 -0.641945 3.119977
									CHANNELS 3 Xrotation Yrotation Zrotation
									JOINT LeftHandIndex2
									{
										OFFSET 3.348503 0.000000 0.000000
										CHANNELS 3 Xrotation Yrotation Zrotation
										JOINT LeftHandIndex3
										{
											OFFSET 3.314552 0.000000 0.000000
											CHANNELS 3 Xrotation Yrotation Zrotation
											End Site
											{
												OFFSET -1.032898 3.075485 0.678796
											}
										}
									}
								}
								JOINT LeftHandMiddle1
								{
									OFFSET 8.124603 0.000000 0.000000
									CHANNELS 3 Xrotation Yrotation Zrotation
									JOINT LeftHandMiddle2
									{
										OFFSET 4.166275 0.000000 0.000000
										CHANNELS 3 Xrotation Yrotation Zrotation
										JOINT LeftHandMiddle3
										{
											OFFSET 3.018135 0.000000 0.000000
											CHANNELS 3 Xrotation Yrotation Zrotation
											End Site
											{
												OFFSET -1.032700 2.767982 0.617226
											}
										}
									}
								}
								JOINT LeftHandRing1
								{
									OFFSET 8.571686 -0.031357 -2.884048
									CHANNELS 3 Xrotation Yrotation Zrotation
									JOINT LeftHandRing2
									{
										OFFSET 3.671181 0.000000 0.000000
										CHANNELS 3 Xrotation Yrotation Zrotation
										JOINT LeftHandRing3
										{
											OFFSET 2.728851 0.000000 0.000000
											CHANNELS 3 Xrotation Yrotation Zrotation
											End Site
											{
												OFFSET -0.815796 2.539223 0.577389
											}
										}
									}
								}
								JOINT LeftHandPinky1
								{
									OFFSET 7.854515 -0.675232 -5.213020
									CHANNELS 3 Xrotation Yrotation Zrotation
									JOINT LeftHandPinky2
									{
										OFFSET 3.068596 0.000000 0.000000
										CHANNELS 3 Xrotation Yrotation Zrotation
										JOINT LeftHandPinky3
										{
											OFFSET 2.396042 0.000000 0.000000
											CHANNELS 3 Xrotation Yrotation Zrotation
											End Site
											{
												OFFSET -0.524597 2.267998 0.567429
											}
										}
									}
								}
							}
							JOINT LeftSleeve
							{
								OFFSET 19.684509 -0.200119 0.476146
								CHANNELS 3 Xrotation Yrotation Zrotation
								End Site
								{
									OFFSET -0.031017 25.731133 -0.002868
								}
							}
						}
					}
				}
				JOINT RightShoulder
				{
					OFFSET -4.395900 7.341202 -1.870200
					CHANNELS 3 Xrotation Yrotation Zrotation
					JOINT RightArm
					{
						OFFSET -8.071453 0.936867 -2.181100
						CHANNELS 3 Xrotation Yrotation Zrotation
						JOINT RightForeArm
						{
							OFFSET -31.272011 0.000000 0.000000
							CHANNELS 3 Xrotation Yrotation Zrotation
							JOINT RightHand
							{
								OFFSET -31.771019 0.000000 0.000000
								CHANNELS 3 Xrotation Yrotation Zrotation
								JOINT RightHandThumb1
								{
									OFFSET -2.886520 -2.557808 4.416626
									CHANNELS 3 Xrotation Yrotation Zrotation
									JOINT RightHandThumb2
									{
										OFFSET -2.371056 -1.368927 1.368928
										CHANNELS 3 Xrotation Yrotation Zrotation
										JOINT RightHandThumb3
										{
											OFFSET -2.243362 -1.295204 1.295206
											CHANNELS 3 Xrotation Yrotation Zrotation
											End Site
											{
												OFFSET 0.332642 2.876938 0.020047
											}
										}
									}
								}
								JOINT RightHandIndex1
								{
									OFFSET -8.568993 -0.641953 3.120017
									CHANNELS 3 Xrotation Yrotation Zrotation
									JOINT RightHandIndex2
									{
										OFFSET -3.348518 0.000000 0.000000
										CHANNELS 3 Xrotation Yrotation Zrotation
										JOINT RightHandIndex3
										{
											OFFSET -3.314552 0.000000 0.000000
											CHANNELS 3 Xrotation Yrotation Zrotation
											End Site
											{
												OFFSET 1.032898 3.075478 0.678804
											}
										}
									}
								}
								JOINT RightHandMiddle1
								{
									OFFSET -8.124588 0.000000 0.000000
									CHANNELS 3 Xrotation Yrotation Zrotation
									JOINT RightHandMiddle2
									{
										OFFSET -4.166275 0.000000 0.000000
										CHANNELS 3 Xrotation Yrotation Zrotation
										JOINT RightHandMiddle3
										{
											OFFSET -3.018097 0.000000 0.000000
											CHANNELS 3 Xrotation Yrotation Zrotation
											End Site
											{
												OFFSET 1.032700 2.767937 0.617197
											}
										}
									}
								}
								JOINT RightHandRing1
								{
									OFFSET -8.571747 -0.031349 -2.884061
									CHANNELS 3 Xrotation Yrotation Zrotation
									JOINT RightHandRing2
									{
										OFFSET -3.671204 0.000000 0.000000
										CHANNELS 3 Xrotation Yrotation Zrotation
										JOINT RightHandRing3
										{
											OFFSET -2.728874 0.000000 0.000000
											CHANNELS 3 Xrotation Yrotation Zrotation
											End Site
											{
												OFFSET 0.815804 2.539261 0.577413
											}
										}
									}
								}
								JOINT RightHandPinky1
								{
									OFFSET -7.854561 -0.675247 -5.212970
									CHANNELS 3 Xrotation Yrotation Zrotation
									JOINT RightHandPinky2
									{
										OFFSET -3.068550 0.000000 0.000000
										CHANNELS 3 Xrotation Yrotation Zrotation
										JOINT RightHandPinky3
										{
											OFFSET -2.395981 0.000000 0.000000
											CHANNELS 3 Xrotation Yrotation Zrotation
											End Site
											{
												OFFSET 0.524605 2.267952 0.567413
											}
										}
									}
								}
							}
							JOINT RightSleeve
							{
								OFFSET -19.684753 -0.200165 0.476065
								CHANNELS 3 Xrotation Yrotation Zrotation
								End Site
								{
									OFFSET 0.031342 25.731255 -0.002917
								}
							}
						}
					}
				}
				JOINT Hood
				{
					OFFSET 0.369700 14.447800 -5.317800
					CHANNELS 3 Xrotation Yrotation Zrotation
					JOINT Hood1
					{
						OFFSET 0.001700 -5.553802 -5.895100
						CHANNELS 3 Xrotation Yrotation Zrotation
						JOINT Hood2
						{
							OFFSET -0.000200 -8.380501 0.763600
							CHANNELS 3 Xrotation Yrotation Zrotation
							End Site
							{
								OFFSET 0.000000 8.415215 0.000000
							}
						}
					}
				}
				JOINT Left_Breast
				{
					OFFSET 5.682500 3.120102 3.188800
					CHANNELS 3 Xrotation Yrotation Zrotation
					End Site
					{
						OFFSET 0.000000 10.528564 0.000000
					}
				}
				JOINT Right_Breast
				{
					OFFSET -4.947600 3.120102 3.185900
					CHANNELS 3 Xrotation Yrotation Zrotation
					End Site
					{
						OFFSET 0.000000 10.528564 0.000000
					}
				}
				JOINT Whistle
				{
					OFFSET 0.368200 11.471298 0.095400
					CHANNELS 3 Xrotation Yrotation Zrotation
					JOINT Whistle1
					{
						OFFSET -0.002000 -6.349899 7.479800
						CHANNELS 3 Xrotation Yrotation Zrotation
						JOINT Whistle2
						{
							OFFSET -0.001300 -8.217598 4.717600
							CHANNELS 3 Xrotation Yrotation Zrotation
							End Site
							{
								OFFSET 0.000000 9.475479 0.000000
							}
						}
					}
				}
			}
		}
		JOINT Belly
		{
			OFFSET 0.212400 1.593002 3.163700
			CHANNELS 3 Xrotation Yrotation Zrotation
			End Site
			{
				OFFSET 0.000000 7.496635 0.000000
			}
		}
	}
	JOINT FitGrandmaFacialAnim_Joint
	{
		OFFSET 1.150000 -86.211197 -1.220100
		CHANNELS 3 Xrotation Yrotation Zrotation
		End Site
		{
			OFFSET 0.000000 31.666618 0.000000
		}
	}
}
MOTION
Frames: 4
Frame Time: 0.016667
-1.320834 80.768257 1.160143 -6.082184 -42.982148 -3.906910 -0.000000 0.000002 -0.000000 -25.196593 5.865233 14.964302 35.239145 -14.844774 -0.534091 -7.677015 0.963032 -8.238488 -0.000000 -0.000002 0.000000 -0.000001 0.000002 0.000000 -0.000002 -0.000001 -0.000000 1.513570 -14.946032 -15.208769 33.161443 -8.144703 -0.291913 -26.474640 -5.411071 18.481613 0.000000 -0.000002 -0.000000 -0.000003 0.000002 0.000000 0.000000 0.000002 -0.000000 5.841993 4.581698 -1.345021 11.836540 9.037616 -3.083968 11.836544 9.037614 -3.083968 -9.907370 -1.416032 0.452969 -0.529820 20.570684 -0.772810 0.000000 -0.000000 0.000000 0.000000 -0.000000 0.000000 0.000000 -0.000000 0.000000 0.000000 -0.000000 0.000000 0.000000 -0.000000 0.000000 0.000000 -0.000000 0.000000 0.000000 -0.000000 0.000000 0.000000 -0.000000 0.000000 0.000000 -0.000000 0.000000 0.000000 -0.000000 0.000000 0.000000 -0.000000 0.000000 0.000000 -0.000000 0.000000 0.000000 -0.000000 0.000000 0.000000 -0.000000 0.000000 0.000000 -0.000000 0.000000 0.000000 -0.000000 0.000000 0.000000 -0.000000 0.000000 0.000000 -0.000000 0.000000 0.000000 -0.000000 0.000000 1.396583 -0.734466 -7.859328 -14.236647 2.407736 -63.256820 9.875233 -47.538397 5.912064 16.118522 0.922176 18.828759 9.163600 4.814090 -5.499028 -0.335365 0.032561 0.783686 -0.000001 -0.000000 0.000000 -0.902008 -6.980970 -3.808416 0.033398 0.804251 -16.418986 0.000000 0.000002 0.000001 1.947849 9.683073 -14.539803 -0.456444 -1.565429 -21.881032 -0.000005 -0.000000 0.000002 2.605857 14.896827 -31.345265 -0.576856 -2.712390 -32.011560 0.000004 -0.000001 0.000002 4.170543 18.495027 -34.987320 -0.706813 -5.788625 -39.372919 0.000000 -0.000001 -0.000001 0.000003 -0.000002 -0.000000 1.410915 9.461488 9.792761 1.220066 -24.270686 60.532866 -6.660692 41.858435 8.043902 6.225209 12.322305 11.673234 -8.898172 -4.908923 -0.379258 7.904823 -19.192476 -2.856876 0.000000 0.000001 -0.000002 -1.085501 -1.215486 4.525251 0.142009 -1.115594 16.942610 -0.000001 0.000000 0.000001 -0.668344 -2.904956 12.731543 -0.667278 1.816592 30.578767 -0.000001 0.000001 0.000000 2.423625 -7.404563 21.763273 -0.987209 3.762999 37.431199 0.000002 0.000000 0.000001 3.480601 -10.053122 24.322319 -1.457029 7.871424 41.091979 -0.000001 -0.000001 0.000002 0.000003 -0.000001 -0.000000 0.000001 0.000000 -0.000000 0.000001 0.000000 -0.000000 0.000001 0.000000 -0.000000 0.000001 0.000000 -0.000000 0.000001 0.000000 -0.000000 0.000001 0.000000 -0.000000 0.000001 0.000002 -0.000001 0.000001 0.000002 -0.000001 -0.000000 -0.000002 0.000000 -0.000000 0.000002 -0.000000 
-1.120102 80.486671 0.949061 -4.943743 -43.751183 -3.160669 -0.000000 -0.000002 -0.000000 -26.767670 5.923784 15.205678 36.215248 -14.478404 -0.481908 -7.882061 1.014859 -8.312982 -0.000000 -0.000000 0.000000 0.000000 -0.000003 0.000001 -0.000002 -0.000003 -0.000001 -0.505113 -12.663476 -14.964400 35.201538 -9.760503 -0.498196 -26.916456 -5.374068 19.141100 -0.000000 -0.000000 0.000000 0.000000 0.000001 -0.000000 -0.000001 -0.000000 -0.000001 5.939409 4.487545 -1.296903 12.025228 8.854457 -2.993141 12.025229 8.854466 -2.993144 -10.777268 -0.439169 0.984889 -1.745465 21.729760 -1.808206 0.000000 -0.000000 0.000000 0.000000 -0.000000 0.000000 0.000000 -0.000000 0.000000 0.000000 -0.000000 0.000000 0.000000 -0.000000 0.000000 0.000000 -0.000000 0.000000 0.000000 -0.000000 0.000000 0.000000 -0.000000 0.000000 0.000000 -0.000000 0.000000 0.000000 -0.000000 0.000000 0.000000 -0.000000 0.000000 0.000000 -0.000000 0.000000 0.000000 -0.000000 0.000000 0.000000 -0.000000 0.000000 0.000000 -0.000000 0.000000 0.000000 -0.000000 0.000000 0.000000 -0.000000 0.000000 0.000000 -0.000000 0.000000 0.000000 -0.000000 0.000000 0.965642 -1.032586 -7.966036 -15.103293 0.865227 -62.925092 10.782987 -44.898163 6.185666 16.918920 -0.292570 19.627069 9.349438 4.758726 -5.687989 -0.198650 0.325448 0.830096 0.000003 0.000002 0.000003 -1.019732 -6.725072 -5.312743 -0.024098 0.621110 -18.002336 -0.000004 -0.000002 0.000002 2.038149 9.433262 -15.807848 -0.518312 -1.712260 -23.341905 -0.000002 -0.000000 0.000000 2.629677 14.587933 -32.393805 -0.622552 -2.782430 -33.387017 -0.000000 0.000000 0.000000 4.065060 18.024538 -36.188818 -0.726398 -5.810867 -40.750377 -0.000001 0.000002 0.000001 0.000002 0.000001 -0.000001 0.953483 9.999493 9.272304 0.949927 -23.054607 60.574564 -5.823121 42.180837 7.329605 6.263645 12.051180 10.451365 -8.629383 -4.893355 -0.125873 7.913481 -19.223984 -2.860428 -0.000000 0.000002 0.000000 -1.071999 -1.312169 5.663823 0.107978 -1.008049 18.067635 -0.000001 0.000000 0.000001 -0.667776 -2.883312 13.714692 -0.713121 1.892768 31.570982 0.000000 0.000000 -0.000002 2.379255 -7.310043 22.637149 -1.035009 3.824191 38.329464 -0.000000 0.000000 0.000003 3.381069 -9.859300 25.095553 -1.498509 7.918892 41.906469 -0.000002 -0.000001 0.000004 0.000002 -0.000001 -0.000000 -0.000001 0.000000 0.000001 -0.000001 0.000000 0.000001 -0.000001 0.000000 0.000001 -0.000001 0.000000 0.000001 -0.000001 0.000000 0.000001 -0.000001 0.000000 0.000001 -0.000002 -0.000002 0.000001 -0.000002 -0.000002 0.000001 -0.000000 0.000001 0.000000 -0.000000 -0.000002 -0.000000 
-0.774954 80.054848 0.622892 -3.045143 -44.508098 -1.667052 -0.000000 -0.000003 -0.000000 -29.151046 5.873649 15.172060 37.366848 -13.947542 -0.405940 -7.910539 1.058418 -8.409161 -0.000000 -0.000000 -0.000000 0.000000 0.000001 -0.000001 -0.000002 0.000002 -0.000001 -3.795528 -10.131801 -15.008859 38.296208 -11.303327 -0.712649 -27.564693 -5.349599 19.846761 0.000000 0.000001 -0.000000 -0.000000 -0.000001 0.000001 -0.000001 -0.000001 -0.000001 6.041425 4.323867 -1.286149 12.224169 8.528400 -2.981039 12.224176 8.528394 -2.981034 -12.706025 0.665371 1.229649 -2.359373 22.874640 -2.642888 0.000000 0.000000 0.000000 0.000000 0.000000 0.000000 0.000000 0.000000 0.000000 0.000000 0.000000 0.000000 0.000000 0.000000 0.000000 0.000000 0.000000 0.000000 0.000000 0.000000 0.000000 0.000000 0.000000 0.000000 0.000000 0.000000 0.000000 0.000000 0.000000 0.000000 0.000000 0.000000 0.000000 0.000000 0.000000 0.000000 0.000000 0.000000 0.000000 0.000000 0.000000 0.000000 0.000000 0.000000 0.000000 0.000000 0.000000 0.000000 0.000000 0.000000 0.000000 0.000000 0.000000 0.000000 0.000000 0.000000 0.000000 0.265570 -1.356439 -8.721383 -15.849135 -0.272480 -61.599127 11.914422 -42.970650 5.909664 17.937608 -1.587097 20.477098 9.860298 4.600699 -6.210163 0.178200 1.135724 0.954699 -0.000002 0.000001 -0.000001 -1.259477 -6.014152 -9.465719 -0.209153 0.123940 -22.380652 0.000001 0.000002 -0.000003 2.249205 8.742728 -19.308579 -0.708701 -2.109441 -27.382326 -0.000000 -0.000001 0.000000 2.646776 13.741536 -35.282647 -0.757563 -2.970171 -37.190503 0.000000 -0.000000 0.000000 3.684806 16.759124 -39.492639 -0.783288 -5.869799 -44.559089 -0.000001 -0.000001 0.000002 0.000003 -0.000000 -0.000001 0.311090 10.730827 8.924906 0.830483 -21.973980 60.244536 -4.994663 43.079998 7.063716 6.221340 11.810341 8.625592 -7.878574 -4.840426 0.584295 7.937754 -19.312208 -2.870391 0.000000 0.000001 0.000001 -1.004370 -1.581459 8.851901 0.001589 -0.710721 21.217812 0.000000 0.000002 0.000004 -0.662316 -2.824120 16.467574 -0.848392 2.101724 34.349779 -0.000002 0.000000 -0.000001 2.247671 -7.051107 25.083680 -1.173854 3.991419 40.845136 -0.000000 0.000001 -0.000008 3.080880 -9.327134 27.258556 -1.618323 8.048621 44.187796 -0.000000 -0.000001 -0.000000 0.000002 0.000001 -0.000004 -0.000001 0.000000 -0.000001 -0.000001 0.000000 -0.000001 -0.000001 0.000000 -0.000001 -0.000001 0.000000 -0.000001 -0.000001 0.000000 -0.000001 -0.000001 0.000000 -0.000001 -0.000001 0.000001 0.000000 -0.000001 0.000001 0.000000 -0.000000 -0.000001 0.000000 -0.000000 -0.000003 -0.000000 
-0.356425 79.536942 0.230393 -0.810317 -45.261020 0.139925 -0.000000 -0.000002 0.000000 -31.888470 5.723226 15.080633 38.639569 -13.299380 -0.320286 -7.878711 1.116400 -8.550973 -0.000000 -0.000000 0.000000 -0.000001 -0.000000 -0.000000 0.000006 0.000000 0.000000 -7.669923 -8.133464 -15.309553 41.614423 -12.114141 -0.836359 -28.236980 -5.243933 20.369373 -0.000000 0.000003 -0.000000 -0.000002 0.000003 -0.000002 0.000000 -0.000003 0.000001 6.166290 4.131181 -1.307093 12.470203 8.138654 -3.034280 12.470206 8.138646 -3.034277 -14.888605 1.797576 1.647219 -2.987670 24.094365 -3.539505 0.000001 0.000000 0.000000 0.000001 0.000000 0.000000 0.000001 0.000000 0.000000 0.000001 0.000000 0.000000 0.000001 0.000000 0.000000 0.000001 0.000000 0.000000 0.000001 0.000000 0.000000 0.000001 0.000000 0.000000 0.000001 0.000000 0.000000 0.000001 0.000000 0.000000 0.000001 0.000000 0.000000 0.000001 0.000000 0.000000 0.000001 0.000000 0.000000 0.000001 0.000000 0.000000 0.000001 0.000000 0.000000 0.000001 0.000000 0.000000 0.000001 0.000000 0.000000 0.000001 0.000000 0.000000 0.000001 0.000000 0.000000 -0.375966 -1.611367 -9.419202 -16.940404 -1.632611 -60.270470 12.892797 -40.769047 5.492821 19.195893 -3.354578 21.651922 10.623816 4.348448 -6.998077 0.744564 2.361285 1.132680 -0.000001 0.000002 -0.000006 -1.386170 -4.956155 -15.725918 -0.554565 -0.599301 -28.997961 0.000002 -0.000002 0.000000 2.463019 7.707553 -24.585473 -1.048246 -2.681558 -33.490501 -0.000002 0.000001 -0.000005 2.540721 12.492736 -39.622539 -0.984468 -3.235756 -42.938315 0.000001 -0.000001 -0.000002 2.877030 14.964224 -44.444458 -0.876387 -5.951392 -50.313427 -0.000004 -0.000001 0.000001 0.000002 -0.000002 -0.000001 -0.442264 11.779068 8.775496 0.563398 -20.903012 59.747934 -4.165705 43.767774 6.786842 6.490515 12.058534 6.153604 -6.731243 -4.732391 1.676337 7.975039 -19.447678 -2.885669 0.000002 0.000001 -0.000001 -0.815437 -1.983359 13.748253 -0.192952 -0.266695 26.056455 -0.000001 -0.000001 -0.000001 -0.642469 -2.735971 20.695292 -1.075432 2.409177 38.618969 -0.000000 -0.000000 -0.000001 2.025494 -6.670644 28.840235 -1.401003 4.235909 44.710336 0.000002 0.000000 -0.000002 2.559860 -8.543098 30.575304 -1.812404 8.238360 47.693179 -0.000004 -0.000001 0.000001 0.000001 -0.000001 0.000001 -0.000000 -0.000001 0.000001 -0.000000 -0.000001 0.000001 -0.000000 -0.000001 0.000001 -0.000000 -0.000001 0.000001 -0.000000 -0.000001 0.000001 -0.000000 -0.000001 0.000001 -0.000000 0.000000 -0.000000 -0.000000 0.000000 -0.000000 -0.000000 -0.000001 0.000000 -0.000000 -0.000002 0.000000 
